<?xml version="1.0" encoding="utf-8"?>
<svg viewBox="0 0 259.51 259.52" xmlns="http://www.w3.org/2000/svg">
  <path id="Path_143" data-name="Path 143" d="M 259.51 0.005 C 259.343 2.613 259.56 5.324 259.32 8.216 C 259.236 9.228 259.289 10.366 259.202 11.336 C 259.089 12.586 259.102 14.018 258.966 15.397 C 258.794 17.119 258.787 19.154 258.601 20.791 C 258.273 23.68 258.123 26.648 257.747 29.401 C 257.238 33.115 256.922 36.653 256.367 39.944 C 255.433 45.479 254.358 51.256 253.178 56.636 C 252.323 60.536 251.406 64.052 250.426 67.836 C 249.326 72.092 248.032 75.985 246.739 80.217 C 245.639 83.832 244.373 87.11 243.116 90.71 C 241.816 94.449 240.199 97.97 238.832 101.41 C 237.124 105.705 235.158 109.488 233.347 113.433 C 232.202 115.926 230.847 118.365 229.62 120.82 C 228.302 123.466 226.72 126.034 225.468 128.338 C 223.752 131.498 221.951 134.284 220.194 137.211 C 218.502 140.029 216.605 142.856 214.839 145.545 C 212.513 149.087 210.202 152.126 207.8 155.393 C 205.736 158.202 203.783 160.648 201.712 163.221 C 199.318 166.195 196.775 169.157 194.42 171.81 C 191.393 175.221 188.371 178.554 185.365 181.573 C 182.965 183.985 180.589 186.395 178.257 188.548 C 175.257 191.315 172.421 194.019 169.565 196.402 C 166.233 199.181 162.908 202.065 159.75 204.43 C 156.792 206.646 153.966 209.043 151.05 211.03 C 147.889 213.189 144.799 215.444 141.831 217.284 C 138.017 219.649 134.298 222.166 130.663 224.174 C 126.45 226.501 122.15 229.083 118.185 231.008 C 113.575 233.247 108.951 235.627 104.675 237.424 C 100.575 239.149 96.565 240.929 92.801 242.312 C 88.301 243.964 84.295 245.503 80.217 246.782 C 74.172 248.682 68.146 250.46 62.786 251.782 C 53.558 254.066 45.178 255.539 37.835 256.682 C 30.712 257.794 24.398 258.322 19.564 258.717 L 17.159 258.917 C 15.521 259.053 13.651 259.154 12.526 259.217 C 8.358 259.52 4.176 259.596 0 259.444 L 259.51 259.444 L 259.51 0.005 Z" fill="#f1f5f8"/>
</svg>